<svg width="60" height="27" viewBox="0 0 60 27" fill="none" xmlns="http://www.w3.org/2000/svg">
<path d="M56.9686 25.0851C57.1189 25.8997 57.9012 26.4383 58.7159 26.288C59.5306 26.1377 60.0692 25.3554 59.9189 24.5408L56.9686 25.0851ZM0.777158 18.3199C0.713475 19.1459 1.33144 19.8671 2.15741 19.9308L15.6175 20.9686C16.4434 21.0323 17.1647 20.4143 17.2283 19.5883C17.292 18.7623 16.6741 18.0411 15.8481 17.9774L3.88359 17.055L4.80604 5.0905C4.86972 4.26452 4.25176 3.54331 3.42579 3.47963C2.59981 3.41595 1.8786 4.03391 1.81492 4.85988L0.777158 18.3199ZM59.9189 24.5408C58.2336 15.4062 54.8994 9.21713 50.3653 5.45078C45.8121 1.6687 40.2508 0.496496 34.473 0.995787C23.028 1.9848 10.337 9.55009 1.29673 17.2962L3.2487 19.5743C12.1091 11.9824 24.2118 4.89369 34.7313 3.98465C39.9356 3.53491 44.6492 4.60266 48.4484 7.75848C52.2665 10.93 55.362 16.3768 56.9686 25.0851L59.9189 24.5408Z" fill="#E15544"/>
</svg>
