<svg width="20" height="52" viewBox="0 0 20 52" fill="none" xmlns="http://www.w3.org/2000/svg">
<path d="M7.89588 2.42327C8.12965 1.62851 7.67488 0.794726 6.88012 0.560959C6.08536 0.327191 5.25157 0.781966 5.0178 1.57673L7.89588 2.42327ZM14.8664 51.9694C15.6779 52.1359 16.4708 51.613 16.6373 50.8015L19.351 37.5771C19.5175 36.7656 18.9947 35.9727 18.1831 35.8062C17.3716 35.6396 16.5788 36.1625 16.4122 36.974L14.0001 48.7291L2.24501 46.3169C1.43349 46.1504 0.640633 46.6733 0.474107 47.4848C0.307581 48.2963 0.830451 49.0892 1.64197 49.2557L14.8664 51.9694ZM5.0178 1.57673C2.46299 10.2626 1.80801 18.3742 3.25635 26.5128C4.70283 34.641 8.2312 42.706 13.9157 51.3258L16.4201 49.6742C10.8936 41.294 7.56632 33.609 6.20994 25.9872C4.85541 18.3758 5.4504 10.7374 7.89588 2.42327L5.0178 1.57673Z" fill="#E15544"/>
</svg>
