<svg width="60" height="35" viewBox="0 0 60 35" fill="none" xmlns="http://www.w3.org/2000/svg">
<path d="M58.25 7.56164C59.0464 7.33359 59.5072 6.50309 59.2791 5.70667C59.0511 4.91025 58.2206 4.44949 57.4242 4.67754L58.25 7.56164ZM50.5595 13.8757L49.1894 13.265L49.1452 13.3642L49.1157 13.4687L50.5595 13.8757ZM56.5017 25.7349L57.9405 25.3109L57.9405 25.3109L56.5017 25.7349ZM29.5741 26.3876L29.7451 24.8974L29.5741 26.3876ZM1.27605 6.04361C0.511212 6.36191 0.149222 7.23996 0.467523 8.0048L5.65453 20.4685C5.97283 21.2334 6.85088 21.5954 7.61572 21.2771C8.38056 20.9588 8.74255 20.0807 8.42425 19.3159L3.81358 8.23699L14.8925 3.62632C15.6573 3.30802 16.0193 2.42997 15.701 1.66513C15.3827 0.900291 14.5046 0.538301 13.7398 0.856601L1.27605 6.04361ZM57.4242 4.67754C52.5965 6.0599 50.77 9.71858 49.1894 13.265L51.9295 14.4863C53.5037 10.9542 54.8561 8.53344 58.25 7.56164L57.4242 4.67754ZM49.1157 13.4687C48.0747 17.162 47.6777 20.3723 47.7367 23.0982L50.736 23.0333C50.6844 20.6467 51.0304 17.7341 52.0032 14.2826L49.1157 13.4687ZM47.7367 23.0982C47.8071 26.3493 48.5276 28.9391 49.6054 30.8208C50.663 32.6672 52.1567 33.9687 53.8132 34.2895C54.6613 34.4538 55.5383 34.3511 56.3212 33.9196C57.1002 33.4902 57.6795 32.7948 58.0489 31.9528C58.7699 30.309 58.7418 28.0295 57.9405 25.3109L55.0629 26.159C55.7686 28.5536 55.6189 30.0242 55.3015 30.7477C55.1517 31.0893 54.9827 31.2318 54.8731 31.2922C54.7675 31.3504 54.6157 31.3892 54.3837 31.3443C53.8802 31.2468 53.009 30.7271 52.2086 29.3297C51.4284 27.9676 50.7979 25.891 50.736 23.0333L47.7367 23.0982ZM57.9405 25.3109C57.3474 23.2984 56.0828 22.0522 54.3191 21.5334C52.712 21.0607 50.8251 21.2343 48.9543 21.5925L49.5184 24.539C51.3017 24.1976 52.5894 24.1517 53.4725 24.4115C54.1989 24.6252 54.74 25.0634 55.0629 26.159L57.9405 25.3109ZM48.9543 21.5925C47.5531 21.8607 46.0351 22.2602 44.4822 22.6806C42.9124 23.1056 41.2988 23.5544 39.6362 23.948C36.3039 24.7368 32.93 25.2628 29.7451 24.8974L29.4032 27.8778C33.1107 28.3032 36.8904 27.6808 40.3273 26.8673C42.0493 26.4597 43.7242 25.9938 45.2662 25.5763C46.8251 25.1543 48.2421 24.7833 49.5184 24.539L48.9543 21.5925ZM29.7451 24.8974C25.0696 24.3609 21.4157 21.2154 17.2222 17.1904C13.1416 13.2737 8.61587 8.59433 2.4241 6.04169L1.28067 8.81524C6.83472 11.105 10.9239 15.3033 15.1448 19.3547C19.2528 23.2977 23.5869 27.2105 29.4032 27.8778L29.7451 24.8974Z" fill="#E15544"/>
</svg>
