<svg width="44" height="34" viewBox="0 0 44 34" fill="none" xmlns="http://www.w3.org/2000/svg">
<path d="M40.9428 1.99862C40.9766 1.17088 41.6751 0.527308 42.5028 0.561156C43.3306 0.595004 43.9741 1.29346 43.9403 2.12119L40.9428 1.99862ZM0.612598 19.3782C0.407248 18.5756 0.891393 17.7586 1.69397 17.5532L14.7726 14.2068C15.5752 14.0015 16.3923 14.4856 16.5976 15.2882C16.803 16.0908 16.3189 16.9079 15.5163 17.1132L3.89079 20.0878L6.86534 31.7133C7.07069 32.5158 6.58655 33.3329 5.78397 33.5383C4.9814 33.7436 4.16432 33.2595 3.95897 32.4569L0.612598 19.3782ZM43.9403 2.12119C43.5348 12.0384 39.4423 20.5239 31.9033 24.5206C24.3463 28.5268 13.8639 27.7407 1.30114 20.2969L2.83043 17.7159C14.9102 24.8735 24.2238 25.1963 30.4982 21.87C36.7905 18.5342 40.5647 11.2458 40.9428 1.99862L43.9403 2.12119Z" fill="#E15544"/>
</svg>
