<svg width="60" height="60" viewBox="0 0 60 60" fill="none" xmlns="http://www.w3.org/2000/svg">
<g clip-path="url(#clip0_3418_3159)">
<path d="M42.722 11.2091L35.7193 18.2819C33.6808 17.1656 31.3537 16.6532 29.0105 16.8339C26.7617 17.0065 24.6207 17.8073 22.8195 19.1205C21.1827 18.6378 19.4786 18.3897 17.7798 18.3897H17.7097C14.9377 18.4059 12.2547 19.0531 9.81445 20.28C10.8607 17.8343 12.3464 15.5989 14.1989 13.6763C16.7956 10.988 20.0259 9.00878 23.5879 7.93019C27.15 6.85161 30.9277 6.7087 34.5598 7.51224C37.5125 8.16478 40.2871 9.42673 42.722 11.2091Z" fill="#02F4BF"/>
<path d="M57.2906 41.2693C56.2822 44.5455 54.2571 47.4037 51.5148 49.4261C48.7725 51.4484 45.4586 52.527 42.0637 52.5H32.041V42.6714H42.0637C42.8619 42.6714 43.652 42.5123 44.3908 42.2023C45.1269 41.8949 45.7983 41.4419 46.3619 40.8729C46.9255 40.3039 47.3758 39.6271 47.6805 38.8802C47.9852 38.136 48.1443 37.3378 48.1443 36.5316C48.1443 35.7254 47.9852 34.9272 47.6805 34.183C47.3758 33.4388 46.9255 32.762 46.3619 32.1903C45.7983 31.6214 45.1269 31.1684 44.3908 30.861C43.652 30.5509 42.8619 30.3918 42.0637 30.3918V29.1676C42.0961 27.3124 41.7132 25.4734 40.942 23.7882C40.6023 23.0439 40.1897 22.3402 39.7124 21.6849C39.1354 20.8895 38.4586 20.1641 37.7036 19.5278C37.6712 19.5008 37.6362 19.4711 37.6038 19.4442L44.3396 12.6437L44.4366 12.5466C45.1 13.1399 45.7228 13.7708 46.3053 14.4368C48.5325 16.9769 50.1585 20.0077 51.0456 23.3055C53.8607 25.2254 55.9855 28.0108 57.11 31.2466C58.2344 34.4823 58.2964 37.9958 57.2906 41.2693Z" fill="#02F4BF"/>
<path d="M30.3286 26.8054L23.2747 33.9267C22.8675 33.0234 22.2527 32.2307 21.4762 31.6186C20.7023 31.0065 19.7909 30.5939 18.8255 30.416C17.8575 30.238 16.8598 30.3 15.9215 30.5966C14.9831 30.8905 14.1283 31.4136 13.4326 32.1147C12.7369 32.8158 12.2219 33.6787 11.928 34.6278C11.6341 35.5743 11.5748 36.5801 11.75 37.5589C11.928 38.535 12.3352 39.4545 12.9419 40.2365C12.9985 40.3066 13.0551 40.3794 13.1144 40.4468C13.6942 41.1317 14.4141 41.6791 15.2285 42.0512H15.2258L8.19072 49.1563L8.17454 49.1725C7.53009 48.671 6.92608 48.1209 6.37061 47.5304C4.67454 45.7345 3.4072 43.5558 2.68455 41.1586C1.72731 37.9768 1.77585 34.5712 2.82747 31.419C3.46653 29.5019 4.45882 27.7357 5.74233 26.2068C6.56206 25.2226 7.50582 24.3408 8.55204 23.575C8.7327 23.4429 8.91606 23.3135 9.10212 23.1895H9.10482C11.6584 21.4853 14.6514 20.5658 17.7227 20.5469C18.7608 20.5442 19.7936 20.644 20.8074 20.8435H20.8101C21.6433 21.008 22.4631 21.2399 23.2612 21.5392C23.7681 21.728 24.267 21.9437 24.7523 22.1837C26.9392 23.2703 28.8483 24.8532 30.3286 26.8054Z" fill="#02F4BF"/>
<path d="M29.884 42.6013V52.4299H17.723C14.9996 52.4434 12.3355 51.7423 9.98145 50.413L17.7203 42.6013H29.884Z" fill="#02F4BF"/>
</g>
<defs>
<clipPath id="clip0_3418_3159">
<rect width="56" height="45.5" fill="white" transform="translate(2 7)"/>
</clipPath>
</defs>
</svg>
