<svg width="222" height="58" viewBox="0 0 222 58" fill="none" xmlns="http://www.w3.org/2000/svg">
<svg width="222" height="58" viewBox="0 0 222 58" fill="none" xmlns="http://www.w3.org/2000/svg">
<path d="M78.7568 24.1572C78.7568 23.4717 78.8564 22.8359 79.0557 22.25C79.2549 21.6582 79.542 21.1455 79.917 20.7119C80.2861 20.2783 80.7373 19.9385 81.2705 19.6924C81.8037 19.4404 82.4043 19.3145 83.0723 19.3145C83.7461 19.3145 84.3496 19.4404 84.8828 19.6924C85.4219 19.9385 85.8789 20.2783 86.2539 20.7119C86.623 21.1455 86.9072 21.6582 87.1064 22.25C87.3057 22.8359 87.4053 23.4717 87.4053 24.1572V24.3506C87.4053 25.0361 87.3057 25.6719 87.1064 26.2578C86.9072 26.8438 86.623 27.3535 86.2539 27.7871C85.8789 28.2207 85.4248 28.5605 84.8916 28.8066C84.3584 29.0527 83.7578 29.1758 83.0898 29.1758C82.416 29.1758 81.8096 29.0527 81.2705 28.8066C80.7373 28.5605 80.2861 28.2207 79.917 27.7871C79.542 27.3535 79.2549 26.8438 79.0557 26.2578C78.8564 25.6719 78.7568 25.0361 78.7568 24.3506V24.1572ZM80.3828 24.3506C80.3828 24.8193 80.4385 25.2676 80.5498 25.6953C80.6611 26.1172 80.8311 26.4893 81.0596 26.8115C81.2822 27.1338 81.5635 27.3887 81.9033 27.5762C82.2432 27.7637 82.6387 27.8574 83.0898 27.8574C83.5352 27.8574 83.9248 27.7637 84.2588 27.5762C84.5986 27.3887 84.8828 27.1338 85.1113 26.8115C85.334 26.4893 85.501 26.1172 85.6123 25.6953C85.7236 25.2676 85.7793 24.8193 85.7793 24.3506V24.1572C85.7793 23.6943 85.7207 23.252 85.6035 22.8301C85.4922 22.4023 85.3252 22.0273 85.1025 21.7051C84.874 21.3828 84.5898 21.1279 84.25 20.9404C83.916 20.7471 83.5234 20.6504 83.0723 20.6504C82.6211 20.6504 82.2285 20.7471 81.8945 20.9404C81.5605 21.1279 81.2822 21.3828 81.0596 21.7051C80.8311 22.0273 80.6611 22.4023 80.5498 22.8301C80.4385 23.252 80.3828 23.6943 80.3828 24.1572V24.3506ZM90.0156 32.6562V19.4902H91.501L91.5801 20.5273C91.709 20.3633 91.8496 20.2168 92.002 20.0879C92.1543 19.9531 92.3184 19.8389 92.4941 19.7451C92.7402 19.6045 93.0127 19.499 93.3115 19.4287C93.6162 19.3525 93.9414 19.3145 94.2871 19.3145C94.8965 19.3145 95.4355 19.4346 95.9043 19.6748C96.373 19.915 96.7656 20.249 97.082 20.6768C97.3984 21.1045 97.6387 21.6172 97.8027 22.2148C97.9668 22.8066 98.0488 23.457 98.0488 24.166V24.3506C98.0488 25.0303 97.9668 25.666 97.8027 26.2578C97.6387 26.8438 97.3984 27.3535 97.082 27.7871C96.7656 28.2207 96.373 28.5605 95.9043 28.8066C95.4414 29.0527 94.9111 29.1758 94.3135 29.1758C93.9502 29.1758 93.6104 29.1377 93.2939 29.0615C92.9834 28.9854 92.7021 28.877 92.4502 28.7363C92.2979 28.6484 92.1543 28.5518 92.0195 28.4463C91.8848 28.335 91.7588 28.2148 91.6416 28.0859V32.6562H90.0156ZM96.4229 24.166C96.4229 23.7031 96.3701 23.2637 96.2646 22.8477C96.165 22.4258 96.0098 22.0537 95.7988 21.7314C95.582 21.415 95.3096 21.1631 94.9814 20.9756C94.6533 20.7881 94.2607 20.6943 93.8037 20.6943C93.5518 20.6943 93.3174 20.7236 93.1006 20.7822C92.8896 20.8408 92.6992 20.9258 92.5293 21.0371C92.3418 21.1484 92.1748 21.2861 92.0283 21.4502C91.8818 21.6143 91.7529 21.7959 91.6416 21.9951V26.5742C91.7412 26.75 91.8555 26.9141 91.9844 27.0664C92.1133 27.2188 92.2598 27.3477 92.4238 27.4531C92.6113 27.5762 92.8193 27.6729 93.0479 27.7432C93.2822 27.8135 93.54 27.8486 93.8213 27.8486C94.2725 27.8486 94.6621 27.7549 94.9902 27.5674C95.3184 27.374 95.5879 27.1162 95.7988 26.7939C96.0098 26.4717 96.165 26.0996 96.2646 25.6777C96.3701 25.2559 96.4229 24.8135 96.4229 24.3506V24.166ZM105.036 29.1758C104.368 29.1758 103.753 29.0615 103.19 28.833C102.634 28.6045 102.156 28.2852 101.758 27.875C101.359 27.4648 101.049 26.9785 100.826 26.416C100.604 25.8535 100.492 25.2412 100.492 24.5791V24.21C100.492 23.4424 100.615 22.7568 100.861 22.1533C101.107 21.5439 101.436 21.0283 101.846 20.6064C102.25 20.1904 102.71 19.8711 103.226 19.6484C103.747 19.4258 104.28 19.3145 104.825 19.3145C105.511 19.3145 106.108 19.4346 106.618 19.6748C107.134 19.9092 107.562 20.2344 107.901 20.6504C108.241 21.0723 108.493 21.5674 108.657 22.1357C108.827 22.7041 108.912 23.3193 108.912 23.9814V24.7109H102.118V24.7725C102.159 25.2354 102.25 25.6426 102.391 25.9941C102.537 26.3457 102.736 26.6562 102.988 26.9258C103.246 27.2129 103.557 27.4385 103.92 27.6025C104.283 27.7666 104.685 27.8486 105.124 27.8486C105.704 27.8486 106.22 27.7314 106.671 27.4971C107.122 27.2627 107.497 26.9521 107.796 26.5654L108.789 27.3389C108.473 27.8193 107.998 28.2471 107.365 28.6221C106.738 28.9912 105.962 29.1758 105.036 29.1758ZM104.825 20.6504C104.497 20.6504 104.187 20.7119 103.894 20.835C103.601 20.9521 103.337 21.125 103.103 21.3535C102.868 21.5879 102.669 21.875 102.505 22.2148C102.347 22.5488 102.235 22.9355 102.171 23.375H107.286V23.2959C107.286 23.0029 107.23 22.6895 107.119 22.3555C107.008 22.0156 106.853 21.7227 106.653 21.4766C106.454 21.2305 106.202 21.0312 105.897 20.8789C105.599 20.7266 105.241 20.6504 104.825 20.6504ZM111.646 29V19.4902H113.104L113.219 20.8965C113.359 20.6973 113.512 20.5156 113.676 20.3516C113.846 20.1816 114.024 20.0352 114.212 19.9121C114.493 19.7246 114.798 19.5811 115.126 19.4814C115.46 19.376 115.812 19.3203 116.181 19.3145C116.679 19.3145 117.13 19.3848 117.534 19.5254C117.944 19.666 118.293 19.8857 118.58 20.1846C118.867 20.4834 119.087 20.8643 119.239 21.3271C119.397 21.7842 119.477 22.3291 119.477 22.9619V29H117.851V22.9971C117.851 22.5752 117.804 22.2178 117.71 21.9248C117.616 21.6318 117.479 21.3945 117.297 21.2129C117.109 21.0312 116.881 20.8994 116.611 20.8174C116.348 20.7354 116.043 20.6943 115.697 20.6943C115.398 20.6943 115.12 20.7383 114.862 20.8262C114.604 20.9082 114.367 21.0225 114.15 21.1689C113.975 21.2979 113.811 21.4473 113.658 21.6172C113.512 21.7871 113.383 21.9746 113.271 22.1797V29H111.646ZM137.116 17.1875V19.4902H140.737V20.7471H137.116V25.915C137.116 26.2842 137.163 26.5889 137.257 26.8291C137.351 27.0693 137.479 27.2598 137.644 27.4004C137.808 27.5469 137.995 27.6494 138.206 27.708C138.423 27.7666 138.651 27.7959 138.892 27.7959C139.067 27.7959 139.249 27.7871 139.437 27.7695C139.624 27.7461 139.809 27.7197 139.99 27.6904C140.166 27.6611 140.33 27.6318 140.482 27.6025C140.641 27.5674 140.77 27.5381 140.869 27.5146L141.098 28.666C140.963 28.748 140.799 28.8213 140.605 28.8857C140.412 28.9443 140.201 28.9941 139.973 29.0352C139.744 29.082 139.501 29.1172 139.243 29.1406C138.991 29.1641 138.739 29.1758 138.487 29.1758C138.065 29.1758 137.67 29.1172 137.301 29C136.938 28.877 136.621 28.6836 136.352 28.4199C136.082 28.1621 135.868 27.8281 135.71 27.418C135.558 27.002 135.481 26.501 135.481 25.915V20.7471H132.985V19.4902H135.481V17.1875H137.116ZM143.62 24.1572C143.62 23.4717 143.72 22.8359 143.919 22.25C144.118 21.6582 144.405 21.1455 144.78 20.7119C145.149 20.2783 145.601 19.9385 146.134 19.6924C146.667 19.4404 147.268 19.3145 147.936 19.3145C148.609 19.3145 149.213 19.4404 149.746 19.6924C150.285 19.9385 150.742 20.2783 151.117 20.7119C151.486 21.1455 151.771 21.6582 151.97 22.25C152.169 22.8359 152.269 23.4717 152.269 24.1572V24.3506C152.269 25.0361 152.169 25.6719 151.97 26.2578C151.771 26.8438 151.486 27.3535 151.117 27.7871C150.742 28.2207 150.288 28.5605 149.755 28.8066C149.222 29.0527 148.621 29.1758 147.953 29.1758C147.279 29.1758 146.673 29.0527 146.134 28.8066C145.601 28.5605 145.149 28.2207 144.78 27.7871C144.405 27.3535 144.118 26.8438 143.919 26.2578C143.72 25.6719 143.62 25.0361 143.62 24.3506V24.1572ZM145.246 24.3506C145.246 24.8193 145.302 25.2676 145.413 25.6953C145.524 26.1172 145.694 26.4893 145.923 26.8115C146.146 27.1338 146.427 27.3887 146.767 27.5762C147.106 27.7637 147.502 27.8574 147.953 27.8574C148.398 27.8574 148.788 27.7637 149.122 27.5762C149.462 27.3887 149.746 27.1338 149.975 26.8115C150.197 26.4893 150.364 26.1172 150.476 25.6953C150.587 25.2676 150.643 24.8193 150.643 24.3506V24.1572C150.643 23.6943 150.584 23.252 150.467 22.8301C150.355 22.4023 150.188 22.0273 149.966 21.7051C149.737 21.3828 149.453 21.1279 149.113 20.9404C148.779 20.7471 148.387 20.6504 147.936 20.6504C147.484 20.6504 147.092 20.7471 146.758 20.9404C146.424 21.1279 146.146 21.3828 145.923 21.7051C145.694 22.0273 145.524 22.4023 145.413 22.8301C145.302 23.252 145.246 23.6943 145.246 24.1572V24.3506ZM80.1279 51L78.1064 41.4902H79.5479L80.6553 47.5547L80.8486 48.917L81.0859 47.5547L82.6064 41.4902H83.6523L85.1641 47.5547L85.4189 49.0488L85.6562 47.5547L86.7109 41.4902H88.1523L86.1309 51H84.8477L83.3623 45.1729L83.1162 43.6963L82.8789 45.1729L81.4111 51H80.1279ZM89.5674 46.1572C89.5674 45.4717 89.667 44.8359 89.8662 44.25C90.0654 43.6582 90.3525 43.1455 90.7275 42.7119C91.0967 42.2783 91.5479 41.9385 92.0811 41.6924C92.6143 41.4404 93.2148 41.3145 93.8828 41.3145C94.5566 41.3145 95.1602 41.4404 95.6934 41.6924C96.2324 41.9385 96.6895 42.2783 97.0645 42.7119C97.4336 43.1455 97.7178 43.6582 97.917 44.25C98.1162 44.8359 98.2158 45.4717 98.2158 46.1572V46.3506C98.2158 47.0361 98.1162 47.6719 97.917 48.2578C97.7178 48.8438 97.4336 49.3535 97.0645 49.7871C96.6895 50.2207 96.2354 50.5605 95.7021 50.8066C95.1689 51.0527 94.5684 51.1758 93.9004 51.1758C93.2266 51.1758 92.6201 51.0527 92.0811 50.8066C91.5479 50.5605 91.0967 50.2207 90.7275 49.7871C90.3525 49.3535 90.0654 48.8438 89.8662 48.2578C89.667 47.6719 89.5674 47.0361 89.5674 46.3506V46.1572ZM91.1934 46.3506C91.1934 46.8193 91.249 47.2676 91.3604 47.6953C91.4717 48.1172 91.6416 48.4893 91.8701 48.8115C92.0928 49.1338 92.374 49.3887 92.7139 49.5762C93.0537 49.7637 93.4492 49.8574 93.9004 49.8574C94.3457 49.8574 94.7354 49.7637 95.0693 49.5762C95.4092 49.3887 95.6934 49.1338 95.9219 48.8115C96.1445 48.4893 96.3115 48.1172 96.4229 47.6953C96.5342 47.2676 96.5898 46.8193 96.5898 46.3506V46.1572C96.5898 45.6943 96.5312 45.252 96.4141 44.8301C96.3027 44.4023 96.1357 44.0273 95.9131 43.7051C95.6846 43.3828 95.4004 43.1279 95.0605 42.9404C94.7266 42.7471 94.334 42.6504 93.8828 42.6504C93.4316 42.6504 93.0391 42.7471 92.7051 42.9404C92.3711 43.1279 92.0928 43.3828 91.8701 43.7051C91.6416 44.0273 91.4717 44.4023 91.3604 44.8301C91.249 45.252 91.1934 45.6943 91.1934 46.1572V46.3506ZM107.066 41.3145C107.365 41.3145 107.676 41.335 107.998 41.376C108.326 41.417 108.572 41.4727 108.736 41.543L108.517 43.1338C108.2 43.0635 107.898 43.0137 107.611 42.9844C107.33 42.9492 107.034 42.9316 106.724 42.9316C106.325 42.9316 105.965 42.9814 105.643 43.0811C105.32 43.1748 105.039 43.3154 104.799 43.5029C104.582 43.667 104.392 43.8691 104.228 44.1094C104.069 44.3438 103.938 44.6074 103.832 44.9004V51H102.197V41.4902H103.744L103.814 42.7646L103.823 43.002C104.21 42.4805 104.673 42.0703 105.212 41.7715C105.757 41.4668 106.375 41.3145 107.066 41.3145ZM114.493 46.5615L113.298 47.7129V51H111.663V37.5H113.298V45.7617L114.361 44.6191L117.481 41.4902H119.459L115.609 45.4541L120.048 51H117.982L114.493 46.5615ZM139.498 41.3145C139.797 41.3145 140.107 41.335 140.43 41.376C140.758 41.417 141.004 41.4727 141.168 41.543L140.948 43.1338C140.632 43.0635 140.33 43.0137 140.043 42.9844C139.762 42.9492 139.466 42.9316 139.155 42.9316C138.757 42.9316 138.396 42.9814 138.074 43.0811C137.752 43.1748 137.471 43.3154 137.23 43.5029C137.014 43.667 136.823 43.8691 136.659 44.1094C136.501 44.3438 136.369 44.6074 136.264 44.9004V51H134.629V41.4902H136.176L136.246 42.7646L136.255 43.002C136.642 42.4805 137.104 42.0703 137.644 41.7715C138.188 41.4668 138.807 41.3145 139.498 41.3145ZM148.278 51.1758C147.61 51.1758 146.995 51.0615 146.433 50.833C145.876 50.6045 145.398 50.2852 145 49.875C144.602 49.4648 144.291 48.9785 144.068 48.416C143.846 47.8535 143.734 47.2412 143.734 46.5791V46.21C143.734 45.4424 143.857 44.7568 144.104 44.1533C144.35 43.5439 144.678 43.0283 145.088 42.6064C145.492 42.1904 145.952 41.8711 146.468 41.6484C146.989 41.4258 147.522 41.3145 148.067 41.3145C148.753 41.3145 149.351 41.4346 149.86 41.6748C150.376 41.9092 150.804 42.2344 151.144 42.6504C151.483 43.0723 151.735 43.5674 151.899 44.1357C152.069 44.7041 152.154 45.3193 152.154 45.9814V46.7109H145.36V46.7725C145.401 47.2354 145.492 47.6426 145.633 47.9941C145.779 48.3457 145.979 48.6562 146.23 48.9258C146.488 49.2129 146.799 49.4385 147.162 49.6025C147.525 49.7666 147.927 49.8486 148.366 49.8486C148.946 49.8486 149.462 49.7314 149.913 49.4971C150.364 49.2627 150.739 48.9521 151.038 48.5654L152.031 49.3389C151.715 49.8193 151.24 50.2471 150.607 50.6221C149.98 50.9912 149.204 51.1758 148.278 51.1758ZM148.067 42.6504C147.739 42.6504 147.429 42.7119 147.136 42.835C146.843 42.9521 146.579 43.125 146.345 43.3535C146.11 43.5879 145.911 43.875 145.747 44.2148C145.589 44.5488 145.478 44.9355 145.413 45.375H150.528V45.2959C150.528 45.0029 150.473 44.6895 150.361 44.3555C150.25 44.0156 150.095 43.7227 149.896 43.4766C149.696 43.2305 149.444 43.0312 149.14 42.8789C148.841 42.7266 148.483 42.6504 148.067 42.6504ZM155.635 41.4902L155.679 42.3867C155.872 42.0527 156.124 41.792 156.435 41.6045C156.751 41.417 157.132 41.3203 157.577 41.3145C157.829 41.3145 158.055 41.3438 158.254 41.4023C158.459 41.4551 158.638 41.5342 158.79 41.6396C158.901 41.7217 159.001 41.8213 159.089 41.9385C159.183 42.0557 159.262 42.1875 159.326 42.334C159.408 42.1992 159.505 42.0732 159.616 41.9561C159.728 41.8389 159.848 41.7363 159.977 41.6484C160.141 41.5488 160.322 41.4697 160.521 41.4111C160.727 41.3525 160.949 41.3203 161.189 41.3145C161.518 41.3145 161.813 41.3643 162.077 41.4639C162.341 41.5576 162.563 41.6982 162.745 41.8857C162.944 42.0967 163.097 42.3721 163.202 42.7119C163.308 43.0459 163.36 43.4414 163.36 43.8984V51H161.813V43.8809C161.813 43.6816 161.79 43.5059 161.743 43.3535C161.696 43.2012 161.629 43.0752 161.541 42.9756C161.447 42.8818 161.33 42.8115 161.189 42.7646C161.055 42.7178 160.896 42.6943 160.715 42.6943C160.521 42.6943 160.354 42.7207 160.214 42.7734C160.073 42.8262 159.956 42.8965 159.862 42.9844C159.769 43.0781 159.695 43.1865 159.643 43.3096C159.59 43.4268 159.555 43.5586 159.537 43.7051C159.537 43.7344 159.537 43.7637 159.537 43.793C159.537 43.8164 159.537 43.8457 159.537 43.8809V51H157.99V43.8721C157.99 43.6729 157.967 43.4971 157.92 43.3447C157.879 43.1924 157.812 43.0664 157.718 42.9668C157.63 42.873 157.519 42.8057 157.384 42.7646C157.255 42.7178 157.103 42.6943 156.927 42.6943C156.733 42.6943 156.563 42.7178 156.417 42.7646C156.276 42.8057 156.156 42.8672 156.057 42.9492C155.98 43.0137 155.913 43.0869 155.854 43.1689C155.802 43.251 155.758 43.3389 155.723 43.4326V51H154.176V41.4902H155.635ZM165.241 46.1572C165.241 45.4717 165.341 44.8359 165.54 44.25C165.739 43.6582 166.026 43.1455 166.401 42.7119C166.771 42.2783 167.222 41.9385 167.755 41.6924C168.288 41.4404 168.889 41.3145 169.557 41.3145C170.23 41.3145 170.834 41.4404 171.367 41.6924C171.906 41.9385 172.363 42.2783 172.738 42.7119C173.107 43.1455 173.392 43.6582 173.591 44.25C173.79 44.8359 173.89 45.4717 173.89 46.1572V46.3506C173.89 47.0361 173.79 47.6719 173.591 48.2578C173.392 48.8438 173.107 49.3535 172.738 49.7871C172.363 50.2207 171.909 50.5605 171.376 50.8066C170.843 51.0527 170.242 51.1758 169.574 51.1758C168.9 51.1758 168.294 51.0527 167.755 50.8066C167.222 50.5605 166.771 50.2207 166.401 49.7871C166.026 49.3535 165.739 48.8438 165.54 48.2578C165.341 47.6719 165.241 47.0361 165.241 46.3506V46.1572ZM166.867 46.3506C166.867 46.8193 166.923 47.2676 167.034 47.6953C167.146 48.1172 167.315 48.4893 167.544 48.8115C167.767 49.1338 168.048 49.3887 168.388 49.5762C168.728 49.7637 169.123 49.8574 169.574 49.8574C170.02 49.8574 170.409 49.7637 170.743 49.5762C171.083 49.3887 171.367 49.1338 171.596 48.8115C171.818 48.4893 171.985 48.1172 172.097 47.6953C172.208 47.2676 172.264 46.8193 172.264 46.3506V46.1572C172.264 45.6943 172.205 45.252 172.088 44.8301C171.977 44.4023 171.81 44.0273 171.587 43.7051C171.358 43.3828 171.074 43.1279 170.734 42.9404C170.4 42.7471 170.008 42.6504 169.557 42.6504C169.105 42.6504 168.713 42.7471 168.379 42.9404C168.045 43.1279 167.767 43.3828 167.544 43.7051C167.315 44.0273 167.146 44.4023 167.034 44.8301C166.923 45.252 166.867 45.6943 166.867 46.1572V46.3506ZM180.358 39.1875V41.4902H183.979V42.7471H180.358V47.915C180.358 48.2842 180.405 48.5889 180.499 48.8291C180.593 49.0693 180.722 49.2598 180.886 49.4004C181.05 49.5469 181.237 49.6494 181.448 49.708C181.665 49.7666 181.894 49.7959 182.134 49.7959C182.31 49.7959 182.491 49.7871 182.679 49.7695C182.866 49.7461 183.051 49.7197 183.232 49.6904C183.408 49.6611 183.572 49.6318 183.725 49.6025C183.883 49.5674 184.012 49.5381 184.111 49.5146L184.34 50.666C184.205 50.748 184.041 50.8213 183.848 50.8857C183.654 50.9443 183.443 50.9941 183.215 51.0352C182.986 51.082 182.743 51.1172 182.485 51.1406C182.233 51.1641 181.981 51.1758 181.729 51.1758C181.308 51.1758 180.912 51.1172 180.543 51C180.18 50.877 179.863 50.6836 179.594 50.4199C179.324 50.1621 179.11 49.8281 178.952 49.418C178.8 49.002 178.724 48.501 178.724 47.915V42.7471H176.228V41.4902H178.724V39.1875H180.358ZM191.521 51.1758C190.853 51.1758 190.237 51.0615 189.675 50.833C189.118 50.6045 188.641 50.2852 188.242 49.875C187.844 49.4648 187.533 48.9785 187.311 48.416C187.088 47.8535 186.977 47.2412 186.977 46.5791V46.21C186.977 45.4424 187.1 44.7568 187.346 44.1533C187.592 43.5439 187.92 43.0283 188.33 42.6064C188.734 42.1904 189.194 41.8711 189.71 41.6484C190.231 41.4258 190.765 41.3145 191.31 41.3145C191.995 41.3145 192.593 41.4346 193.103 41.6748C193.618 41.9092 194.046 42.2344 194.386 42.6504C194.726 43.0723 194.978 43.5674 195.142 44.1357C195.312 44.7041 195.396 45.3193 195.396 45.9814V46.7109H188.603V46.7725C188.644 47.2354 188.734 47.6426 188.875 47.9941C189.021 48.3457 189.221 48.6562 189.473 48.9258C189.73 49.2129 190.041 49.4385 190.404 49.6025C190.768 49.7666 191.169 49.8486 191.608 49.8486C192.188 49.8486 192.704 49.7314 193.155 49.4971C193.606 49.2627 193.981 48.9521 194.28 48.5654L195.273 49.3389C194.957 49.8193 194.482 50.2471 193.85 50.6221C193.223 50.9912 192.446 51.1758 191.521 51.1758ZM191.31 42.6504C190.981 42.6504 190.671 42.7119 190.378 42.835C190.085 42.9521 189.821 43.125 189.587 43.3535C189.353 43.5879 189.153 43.875 188.989 44.2148C188.831 44.5488 188.72 44.9355 188.655 45.375H193.771V45.2959C193.771 45.0029 193.715 44.6895 193.604 44.3555C193.492 44.0156 193.337 43.7227 193.138 43.4766C192.938 43.2305 192.687 43.0312 192.382 42.8789C192.083 42.7266 191.726 42.6504 191.31 42.6504Z" fill="#02F4BF"/>
<path d="M28.7158 29.282C28.7158 28.5916 29.2755 28.032 29.9658 28.032H56.4395C57.1299 28.032 57.6895 28.5916 57.6895 29.282V46.3201H28.7158V29.282Z" fill="#1E0A7D" stroke="#02F4BF" stroke-width="1.5"/>
<path d="M24.5938 48.6372H61.6846V50.1331C61.6846 51.7899 60.3414 53.1331 58.6846 53.1331H27.5938C25.9369 53.1331 24.5938 51.7899 24.5938 50.1331V48.6372Z" fill="#02F4BF"/>
<rect x="40.3291" y="49.7612" width="6.74379" height="1.12396" rx="0.561982" fill="#140754"/>
<path d="M30.5934 19.6573C24.0933 18.6573 21.5935 22.1573 20.8191 28.1719" stroke="#E15544" stroke-width="2" stroke-linecap="round"/>
<path d="M31.0937 14.1573C21.0305 13.1914 15.3358 19.1603 14.9323 28.0371" stroke="#E15544" stroke-width="2" stroke-linecap="round"/>
</svg>
<path d="M28.7158 29.282C28.7158 28.5916 29.2755 28.032 29.9658 28.032H56.4395C57.1299 28.032 57.6895 28.5916 57.6895 29.282V46.3201H28.7158V29.282Z" fill="#1E0A7D" stroke="#02F4BF" stroke-width="1.5"/>
<path d="M24.5938 48.6372H61.6846V50.1331C61.6846 51.7899 60.3414 53.1331 58.6846 53.1331H27.5938C25.9369 53.1331 24.5938 51.7899 24.5938 50.1331V48.6372Z" fill="#02F4BF"/>
<rect x="40.3291" y="49.7612" width="6.74379" height="1.12396" rx="0.561982" fill="#140754"/>
<path d="M30.5934 19.6573C24.0933 18.6573 21.5935 22.1573 20.8191 28.1719" stroke="#E15544" stroke-width="2" stroke-linecap="round"/>
<path d="M31.0937 14.1573C21.0305 13.1914 15.3358 19.1603 14.9323 28.0371" stroke="#E15544" stroke-width="2" stroke-linecap="round"/>
</svg>
