<svg width="41" height="45" viewBox="0 0 41 45" fill="none" xmlns="http://www.w3.org/2000/svg">
<path d="M0.514269 0.00792943C0.514269 0.182377 0.506333 0.301318 0.514269 0.42026C0.815842 3.7189 1.11741 7.01755 1.41105 10.3241C1.82373 15.0025 2.22847 19.6808 2.64115 24.3513C3.10938 29.6006 3.58555 34.8419 4.03791 40.0912C4.06965 40.4718 4.20457 40.6383 4.56169 40.7335C9.64081 42.1291 14.7041 43.5326 19.7832 44.9202C20.1244 45.0154 20.5371 45.0312 20.8784 44.9361C25.9734 43.5405 31.0604 42.1211 36.1554 40.7176C36.5443 40.6066 36.6792 40.4322 36.7109 40.0357C36.8697 38.0533 37.0601 36.063 37.2347 34.0807C37.5284 30.7979 37.8141 27.5151 38.1077 24.2323C38.4489 20.3786 38.7981 16.5329 39.1394 12.6792C39.3933 9.8087 39.6632 6.94618 39.9171 4.07573C40.0362 2.72772 40.1393 1.37972 40.2504 0H0.514269V0.00792943ZM32.5841 11.458C32.3223 14.3602 32.0604 17.2703 31.7985 20.1725C31.4969 23.5108 31.1953 26.849 30.8937 30.1794C30.8065 31.1389 30.6795 32.0983 30.6557 33.0657C30.6398 33.5811 30.4176 33.7159 29.989 33.8349C26.9257 34.6595 23.8703 35.508 20.8149 36.3485C20.68 36.3881 20.553 36.4357 20.4181 36.4754C20.3705 36.4516 20.3228 36.4357 20.2673 36.4119C16.9976 35.5238 13.7279 34.6278 10.4582 33.7239C10.3233 33.6842 10.1487 33.4701 10.1329 33.3195C9.9027 30.8455 9.69636 28.3715 9.47415 25.8499H14.466C14.5533 26.8411 14.6485 27.8482 14.7279 28.8631C14.7993 29.7988 14.7914 29.7988 15.6723 30.0367C17.2516 30.4569 18.8388 30.8693 20.4181 31.2816L20.4022 31.2419C22.1323 30.782 23.8623 30.3301 25.5924 29.8384C25.7511 29.7909 25.9337 29.5371 25.9575 29.3627C26.0607 28.6014 26.1162 27.8323 26.1797 27.0711C26.2829 25.842 26.386 24.6129 26.4971 23.3284H20.4022L20.4181 23.2967C20.3784 23.2967 20.3308 23.2967 20.2911 23.2967H9.24401C9.09322 21.6553 8.95037 20.0297 8.79958 18.3566H20.299C20.3387 18.3566 20.3863 18.3566 20.426 18.3566L20.4101 18.3249H26.9416C27.0923 16.6201 27.2431 14.9549 27.3939 13.258H20.4022L20.4181 13.2263C20.3784 13.2263 20.3308 13.2263 20.2911 13.2263C16.3786 13.2342 12.4661 13.2342 8.55356 13.2421C8.49801 13.2421 8.44246 13.2184 8.33929 13.1866C8.19644 11.569 8.04565 9.95143 7.9028 8.28625H20.2911C20.3308 8.28625 20.3784 8.28625 20.4181 8.28625L20.4022 8.25453H32.846C32.7587 9.36466 32.6714 10.4113 32.5841 11.458Z" fill="#02F4BF"/>
</svg>
