<svg width="46" height="45" viewBox="0 0 46 45" fill="none" xmlns="http://www.w3.org/2000/svg">
<path d="M44.6724 20.5179L24.9987 0.844209C23.873 -0.281403 22.0133 -0.281403 20.8877 0.844209L16.8257 4.9062L22.0133 10.0938C23.2368 9.70228 24.6071 9.94698 25.537 10.9258C26.5158 11.9046 26.7605 13.2749 26.369 14.4984L31.3608 19.4902C32.5843 19.0987 33.9546 19.3434 34.9334 20.3222C36.3037 21.6436 36.3037 23.8458 34.9334 25.2162C33.5631 26.5865 31.4098 26.5865 30.0394 25.2162C29.0117 24.1884 28.767 22.7202 29.3053 21.4478L24.6561 16.7985V29.0334C24.9987 29.1803 25.2923 29.425 25.5859 29.6697C26.9562 30.991 26.9562 33.1933 25.5859 34.5636C24.2156 35.885 22.0623 35.885 20.692 34.5636C19.3217 33.1933 19.3217 31.04 20.692 29.6697C21.0345 29.3271 21.4261 29.0824 21.8176 28.9356V16.5538C21.4261 16.407 21.0345 16.1134 20.692 15.8197C19.6642 14.792 19.4195 13.3238 19.9579 12.0514L14.8192 6.96166L1.36081 20.4201C0.235199 21.5457 0.235199 23.4054 1.36081 24.531L20.9856 44.1558C22.1112 45.2814 23.9709 45.2814 25.0965 44.1558L44.6235 24.6289C45.798 23.4543 45.798 21.6436 44.6724 20.5179Z" fill="#02F4BF"/>
</svg>
