<svg width="46" height="45" viewBox="0 0 46 45" fill="none" xmlns="http://www.w3.org/2000/svg">
<path d="M0.517578 0C15.5277 0 30.5074 0 45.5176 0C45.5176 15.0101 45.5176 30.0203 45.5176 45C30.5378 45 15.5277 45 0.517578 45C0.517578 29.9595 0.517578 14.9797 0.517578 0ZM40.7775 23.8217C39.866 22.181 38.6202 21.0567 36.8275 20.6617C35.5513 20.3579 34.2752 20.3579 32.999 20.6313C28.8667 21.4821 27.1043 26.4652 29.7782 29.7772C30.7201 30.9318 31.9659 31.6307 33.2725 32.2383C34.4271 32.7853 35.6121 33.3018 36.7667 33.8791C37.5567 34.2741 37.891 35.0034 37.7998 35.8845C37.7087 36.7657 37.101 37.2519 36.3413 37.5253C34.6398 38.133 32.6648 37.5861 31.5101 36.158C31.2671 35.8542 31.024 35.5199 30.7809 35.1857C29.6263 35.8542 28.502 36.4922 27.3778 37.1607C28.0767 38.528 29.049 39.6219 30.3859 40.3511C32.6648 41.5969 35.0652 41.7792 37.5264 41.1715C39.1367 40.7765 40.5041 39.9561 41.3548 38.4673C42.9349 35.6415 42.0233 32.1168 39.2279 30.3849C37.9821 29.6253 36.5844 29.1087 35.2779 28.4402C34.6398 28.106 33.9713 27.8022 33.4244 27.3768C32.4521 26.5868 32.6344 25.0068 33.7282 24.3991C34.7917 23.7914 36.2806 24.156 37.101 25.2194C37.2833 25.4321 37.4048 25.6752 37.5871 25.9183C38.6202 25.2194 39.6837 24.5206 40.7775 23.8217ZM12.3677 37.6165C12.9754 38.923 13.8565 39.9561 15.1023 40.6246C16.7127 41.5057 18.475 41.6577 20.2677 41.3842C21.8781 41.1411 23.2151 40.4119 24.0962 38.9534C24.8255 37.738 25.0382 36.4011 25.0382 34.973C25.0382 30.3545 25.0382 25.736 25.0382 21.1175C25.0382 20.9959 25.0382 20.844 25.0382 20.6921C23.6101 20.6921 22.2428 20.6921 20.8147 20.6921C20.8147 20.8744 20.8147 21.0263 20.8147 21.2086C20.8147 25.7664 20.8147 30.2937 20.8147 34.8514C20.8147 35.2768 20.7843 35.7326 20.7235 36.158C20.602 36.8569 20.2374 37.3734 19.5385 37.5861C18.232 37.9811 17.1685 37.5861 16.4089 36.4618C16.2266 36.158 16.0442 35.8542 15.8316 35.5503C14.6465 36.2492 13.5223 36.9176 12.3677 37.6165Z" fill="#02F4BF"/>
</svg>
