<svg width="275" height="57" viewBox="0 0 275 57" fill="none" xmlns="http://www.w3.org/2000/svg">
<path d="M0 25.0423C0 33.2266 9.33767 43.1965 16.7174 49C23.1935 43.6429 32.6064 35.0866 33.2842 25.0423C33.796 17.4564 27.3352 7.78058 16.7174 8.00379C3.99109 8.27133 0 18.2715 0 25.0423Z" fill="#02F4BF"/>
<path d="M20.5319 23.1473C20.4642 25.3487 18.7087 27.0823 16.6109 27.0194C14.5131 26.9565 12.8673 25.1208 12.9351 22.9194C13.0028 20.718 14.7584 18.9843 16.8562 19.0473C18.954 19.1102 20.5997 20.9458 20.5319 23.1473Z" fill="#E15544"/>
<path d="M52.0967 12.5H56.957V24.5938H60.0596V26H52.0967V24.5938H55.3311V13.915H52.0967V12.5ZM62.1953 21.1572C62.1953 20.4717 62.2949 19.8359 62.4941 19.25C62.6934 18.6582 62.9805 18.1455 63.3555 17.7119C63.7246 17.2783 64.1758 16.9385 64.709 16.6924C65.2422 16.4404 65.8428 16.3145 66.5107 16.3145C67.1846 16.3145 67.7881 16.4404 68.3213 16.6924C68.8604 16.9385 69.3174 17.2783 69.6924 17.7119C70.0615 18.1455 70.3457 18.6582 70.5449 19.25C70.7441 19.8359 70.8438 20.4717 70.8438 21.1572V21.3506C70.8438 22.0361 70.7441 22.6719 70.5449 23.2578C70.3457 23.8438 70.0615 24.3535 69.6924 24.7871C69.3174 25.2207 68.8633 25.5605 68.3301 25.8066C67.7969 26.0527 67.1963 26.1758 66.5283 26.1758C65.8545 26.1758 65.248 26.0527 64.709 25.8066C64.1758 25.5605 63.7246 25.2207 63.3555 24.7871C62.9805 24.3535 62.6934 23.8438 62.4941 23.2578C62.2949 22.6719 62.1953 22.0361 62.1953 21.3506V21.1572ZM63.8213 21.3506C63.8213 21.8193 63.877 22.2676 63.9883 22.6953C64.0996 23.1172 64.2695 23.4893 64.498 23.8115C64.7207 24.1338 65.002 24.3887 65.3418 24.5762C65.6816 24.7637 66.0771 24.8574 66.5283 24.8574C66.9736 24.8574 67.3633 24.7637 67.6973 24.5762C68.0371 24.3887 68.3213 24.1338 68.5498 23.8115C68.7725 23.4893 68.9395 23.1172 69.0508 22.6953C69.1621 22.2676 69.2178 21.8193 69.2178 21.3506V21.1572C69.2178 20.6943 69.1592 20.252 69.042 19.8301C68.9307 19.4023 68.7637 19.0273 68.541 18.7051C68.3125 18.3828 68.0283 18.1279 67.6885 17.9404C67.3545 17.7471 66.9619 17.6504 66.5107 17.6504C66.0596 17.6504 65.667 17.7471 65.333 17.9404C64.999 18.1279 64.7207 18.3828 64.498 18.7051C64.2695 19.0273 64.0996 19.4023 63.9883 19.8301C63.877 20.252 63.8213 20.6943 63.8213 21.1572V21.3506ZM77.5146 24.8574C77.8076 24.8574 78.0918 24.8105 78.3672 24.7168C78.6484 24.623 78.8975 24.4912 79.1143 24.3213C79.3311 24.1572 79.5039 23.9639 79.6328 23.7412C79.7676 23.5127 79.8379 23.2666 79.8438 23.0029H81.3818C81.376 23.4248 81.2646 23.8291 81.0479 24.2158C80.8369 24.5967 80.5527 24.9307 80.1953 25.2178C79.8379 25.5107 79.4277 25.7451 78.9648 25.9209C78.502 26.0908 78.0186 26.1758 77.5146 26.1758C76.7939 26.1758 76.1641 26.0469 75.625 25.7891C75.0859 25.5312 74.6377 25.1826 74.2803 24.7432C73.917 24.3096 73.6445 23.8086 73.4629 23.2402C73.2812 22.666 73.1904 22.0625 73.1904 21.4297V21.0605C73.1904 20.4336 73.2812 19.833 73.4629 19.2588C73.6445 18.6846 73.917 18.1777 74.2803 17.7383C74.6377 17.3047 75.0859 16.959 75.625 16.7012C76.1641 16.4434 76.7939 16.3145 77.5146 16.3145C78.0771 16.3145 78.5928 16.4053 79.0615 16.5869C79.5361 16.7627 79.9463 17.0029 80.292 17.3076C80.6318 17.6182 80.8984 17.9844 81.0918 18.4062C81.2852 18.8281 81.3818 19.2793 81.3818 19.7598H79.8438C79.8379 19.4727 79.7734 19.2031 79.6504 18.9512C79.5332 18.6934 79.3721 18.4678 79.167 18.2744C78.9619 18.0811 78.7158 17.9287 78.4287 17.8174C78.1475 17.7061 77.8428 17.6504 77.5146 17.6504C77.0107 17.6504 76.5859 17.7529 76.2402 17.958C75.9004 18.1572 75.625 18.418 75.4141 18.7402C75.2031 19.0684 75.0508 19.4346 74.957 19.8389C74.8691 20.2432 74.8252 20.6504 74.8252 21.0605V21.4297C74.8252 21.8457 74.8691 22.2588 74.957 22.6689C75.0508 23.0732 75.2031 23.4365 75.4141 23.7588C75.6191 24.0869 75.8916 24.3535 76.2314 24.5586C76.5771 24.7578 77.0049 24.8574 77.5146 24.8574ZM90.5225 26C90.458 25.877 90.4053 25.7246 90.3643 25.543C90.3291 25.3555 90.3027 25.1621 90.2852 24.9629C90.1211 25.127 89.9365 25.2822 89.7314 25.4287C89.5322 25.5752 89.3125 25.7041 89.0723 25.8154C88.8262 25.9268 88.5654 26.0146 88.29 26.0791C88.0146 26.1436 87.7217 26.1758 87.4111 26.1758C86.9072 26.1758 86.4502 26.1025 86.04 25.9561C85.6357 25.8096 85.293 25.6104 85.0117 25.3584C84.7246 25.1123 84.502 24.8193 84.3438 24.4795C84.1914 24.1338 84.1152 23.7617 84.1152 23.3633C84.1152 22.8418 84.2178 22.3848 84.4229 21.9922C84.6338 21.5996 84.9297 21.2715 85.3105 21.0078C85.6914 20.75 86.1484 20.5566 86.6816 20.4277C87.2207 20.2988 87.8213 20.2344 88.4834 20.2344H90.2588V19.4873C90.2588 19.2002 90.2061 18.9424 90.1006 18.7139C89.9951 18.4854 89.8457 18.2891 89.6523 18.125C89.459 17.9668 89.2217 17.8438 88.9404 17.7559C88.665 17.668 88.3545 17.624 88.0088 17.624C87.6865 17.624 87.3965 17.665 87.1387 17.7471C86.8867 17.8291 86.6729 17.9375 86.4971 18.0723C86.3213 18.207 86.1836 18.3682 86.084 18.5557C85.9902 18.7373 85.9434 18.9277 85.9434 19.127H84.3086C84.3145 18.7812 84.4023 18.4414 84.5723 18.1074C84.748 17.7734 85 17.4717 85.3281 17.2021C85.6504 16.9385 86.043 16.7246 86.5059 16.5605C86.9746 16.3965 87.5049 16.3145 88.0967 16.3145C88.6357 16.3145 89.1367 16.3818 89.5996 16.5166C90.0625 16.6455 90.4639 16.8418 90.8037 17.1055C91.1377 17.375 91.4014 17.709 91.5947 18.1074C91.7881 18.5059 91.8848 18.9717 91.8848 19.5049V23.9258C91.8848 24.2422 91.9141 24.5791 91.9727 24.9365C92.0312 25.2881 92.1133 25.5957 92.2188 25.8594V26H90.5225ZM87.6484 24.7607C87.9648 24.7607 88.2607 24.7197 88.5361 24.6377C88.8115 24.5557 89.0635 24.4473 89.292 24.3125C89.5146 24.1777 89.708 24.0254 89.8721 23.8555C90.0361 23.6797 90.165 23.498 90.2588 23.3105V21.3857H88.7471C88.1846 21.3857 87.6924 21.4355 87.2705 21.5352C86.8545 21.6289 86.5234 21.7754 86.2773 21.9746C86.1016 22.1152 85.9668 22.2822 85.873 22.4756C85.7852 22.6689 85.7412 22.8887 85.7412 23.1348C85.7412 23.3691 85.7793 23.5859 85.8555 23.7852C85.9375 23.9844 86.0576 24.1543 86.2158 24.2949C86.374 24.4414 86.5732 24.5557 86.8135 24.6377C87.0537 24.7197 87.332 24.7607 87.6484 24.7607ZM98.9336 14.1875V16.4902H102.555V17.7471H98.9336V22.915C98.9336 23.2842 98.9805 23.5889 99.0742 23.8291C99.168 24.0693 99.2969 24.2598 99.4609 24.4004C99.625 24.5469 99.8125 24.6494 100.023 24.708C100.24 24.7666 100.469 24.7959 100.709 24.7959C100.885 24.7959 101.066 24.7871 101.254 24.7695C101.441 24.7461 101.626 24.7197 101.808 24.6904C101.983 24.6611 102.147 24.6318 102.3 24.6025C102.458 24.5674 102.587 24.5381 102.687 24.5146L102.915 25.666C102.78 25.748 102.616 25.8213 102.423 25.8857C102.229 25.9443 102.019 25.9941 101.79 26.0352C101.562 26.082 101.318 26.1172 101.061 26.1406C100.809 26.1641 100.557 26.1758 100.305 26.1758C99.8828 26.1758 99.4873 26.1172 99.1182 26C98.7549 25.877 98.4385 25.6836 98.1689 25.4199C97.8994 25.1621 97.6855 24.8281 97.5273 24.418C97.375 24.002 97.2988 23.501 97.2988 22.915V17.7471H94.8027V16.4902H97.2988V14.1875H98.9336ZM110.096 26.1758C109.428 26.1758 108.812 26.0615 108.25 25.833C107.693 25.6045 107.216 25.2852 106.817 24.875C106.419 24.4648 106.108 23.9785 105.886 23.416C105.663 22.8535 105.552 22.2412 105.552 21.5791V21.21C105.552 20.4424 105.675 19.7568 105.921 19.1533C106.167 18.5439 106.495 18.0283 106.905 17.6064C107.31 17.1904 107.77 16.8711 108.285 16.6484C108.807 16.4258 109.34 16.3145 109.885 16.3145C110.57 16.3145 111.168 16.4346 111.678 16.6748C112.193 16.9092 112.621 17.2344 112.961 17.6504C113.301 18.0723 113.553 18.5674 113.717 19.1357C113.887 19.7041 113.972 20.3193 113.972 20.9814V21.7109H107.178V21.7725C107.219 22.2354 107.31 22.6426 107.45 22.9941C107.597 23.3457 107.796 23.6562 108.048 23.9258C108.306 24.2129 108.616 24.4385 108.979 24.6025C109.343 24.7666 109.744 24.8486 110.184 24.8486C110.764 24.8486 111.279 24.7314 111.73 24.4971C112.182 24.2627 112.557 23.9521 112.855 23.5654L113.849 24.3389C113.532 24.8193 113.058 25.2471 112.425 25.6221C111.798 25.9912 111.021 26.1758 110.096 26.1758ZM109.885 17.6504C109.557 17.6504 109.246 17.7119 108.953 17.835C108.66 17.9521 108.396 18.125 108.162 18.3535C107.928 18.5879 107.729 18.875 107.564 19.2148C107.406 19.5488 107.295 19.9355 107.23 20.375H112.346V20.2959C112.346 20.0029 112.29 19.6895 112.179 19.3555C112.067 19.0156 111.912 18.7227 111.713 18.4766C111.514 18.2305 111.262 18.0312 110.957 17.8789C110.658 17.7266 110.301 17.6504 109.885 17.6504ZM116.397 21.166C116.397 20.457 116.485 19.8066 116.661 19.2148C116.843 18.6172 117.101 18.1045 117.435 17.6768C117.763 17.249 118.161 16.915 118.63 16.6748C119.099 16.4346 119.623 16.3145 120.203 16.3145C120.771 16.3145 121.267 16.4111 121.688 16.6045C122.116 16.792 122.485 17.0674 122.796 17.4307V12.5H124.422V26H122.928L122.857 24.998C122.541 25.3848 122.163 25.6777 121.724 25.877C121.284 26.0762 120.771 26.1758 120.186 26.1758C119.611 26.1758 119.09 26.0527 118.621 25.8066C118.158 25.5605 117.763 25.2207 117.435 24.7871C117.106 24.3535 116.852 23.8438 116.67 23.2578C116.488 22.666 116.397 22.0303 116.397 21.3506V21.166ZM118.023 21.3506C118.023 21.8135 118.073 22.2529 118.173 22.6689C118.272 23.085 118.428 23.4512 118.639 23.7676C118.844 24.084 119.107 24.3359 119.43 24.5234C119.752 24.7051 120.139 24.7959 120.59 24.7959C121.135 24.7959 121.586 24.6729 121.943 24.4268C122.301 24.1807 122.585 23.8496 122.796 23.4336V19.0215C122.585 18.6348 122.301 18.3184 121.943 18.0723C121.586 17.8203 121.141 17.6943 120.607 17.6943C120.15 17.6943 119.758 17.7881 119.43 17.9756C119.107 18.1631 118.844 18.415 118.639 18.7314C118.428 19.0537 118.272 19.4258 118.173 19.8477C118.073 20.2637 118.023 20.7031 118.023 21.166V21.3506ZM52.0967 38.4902H56.957V46.5938H60.0596V48H52.0967V46.5938H55.3311V39.9053H52.0967V38.4902ZM55.1201 35.9941C55.1201 35.8535 55.1406 35.7217 55.1816 35.5986C55.2285 35.4756 55.2988 35.3701 55.3926 35.2822C55.4688 35.2061 55.5654 35.1475 55.6826 35.1064C55.8057 35.0596 55.9434 35.0361 56.0957 35.0361C56.248 35.0361 56.3828 35.0596 56.5 35.1064C56.6172 35.1475 56.7139 35.2061 56.79 35.2822C56.8838 35.3643 56.9541 35.4668 57.001 35.5898C57.0479 35.7129 57.0713 35.8477 57.0713 35.9941C57.0713 36.2578 56.9893 36.4775 56.8252 36.6533C56.6611 36.8291 56.418 36.917 56.0957 36.917C55.7676 36.917 55.5215 36.8291 55.3574 36.6533C55.1992 36.4775 55.1201 36.2578 55.1201 35.9941ZM62.6523 48V38.4902H64.1113L64.2256 39.8965C64.3662 39.6973 64.5186 39.5156 64.6826 39.3516C64.8525 39.1816 65.0312 39.0352 65.2188 38.9121C65.5 38.7246 65.8047 38.5811 66.1328 38.4814C66.4668 38.376 66.8184 38.3203 67.1875 38.3145C67.6855 38.3145 68.1367 38.3848 68.541 38.5254C68.9512 38.666 69.2998 38.8857 69.5869 39.1846C69.874 39.4834 70.0938 39.8643 70.2461 40.3271C70.4043 40.7842 70.4834 41.3291 70.4834 41.9619V48H68.8574V41.9971C68.8574 41.5752 68.8105 41.2178 68.7168 40.9248C68.623 40.6318 68.4854 40.3945 68.3037 40.2129C68.1162 40.0312 67.8877 39.8994 67.6182 39.8174C67.3545 39.7354 67.0498 39.6943 66.7041 39.6943C66.4053 39.6943 66.127 39.7383 65.8691 39.8262C65.6113 39.9082 65.374 40.0225 65.1572 40.1689C64.9814 40.2979 64.8174 40.4473 64.665 40.6172C64.5186 40.7871 64.3896 40.9746 64.2783 41.1797V48H62.6523ZM88.3252 46.8574C88.6182 46.8574 88.9023 46.8105 89.1777 46.7168C89.459 46.623 89.708 46.4912 89.9248 46.3213C90.1416 46.1572 90.3145 45.9639 90.4434 45.7412C90.5781 45.5127 90.6484 45.2666 90.6543 45.0029H92.1924C92.1865 45.4248 92.0752 45.8291 91.8584 46.2158C91.6475 46.5967 91.3633 46.9307 91.0059 47.2178C90.6484 47.5107 90.2383 47.7451 89.7754 47.9209C89.3125 48.0908 88.8291 48.1758 88.3252 48.1758C87.6045 48.1758 86.9746 48.0469 86.4355 47.7891C85.8965 47.5312 85.4482 47.1826 85.0908 46.7432C84.7275 46.3096 84.4551 45.8086 84.2734 45.2402C84.0918 44.666 84.001 44.0625 84.001 43.4297V43.0605C84.001 42.4336 84.0918 41.833 84.2734 41.2588C84.4551 40.6846 84.7275 40.1777 85.0908 39.7383C85.4482 39.3047 85.8965 38.959 86.4355 38.7012C86.9746 38.4434 87.6045 38.3145 88.3252 38.3145C88.8877 38.3145 89.4033 38.4053 89.8721 38.5869C90.3467 38.7627 90.7568 39.0029 91.1025 39.3076C91.4424 39.6182 91.709 39.9844 91.9023 40.4062C92.0957 40.8281 92.1924 41.2793 92.1924 41.7598H90.6543C90.6484 41.4727 90.584 41.2031 90.4609 40.9512C90.3438 40.6934 90.1826 40.4678 89.9775 40.2744C89.7725 40.0811 89.5264 39.9287 89.2393 39.8174C88.958 39.7061 88.6533 39.6504 88.3252 39.6504C87.8213 39.6504 87.3965 39.7529 87.0508 39.958C86.7109 40.1572 86.4355 40.418 86.2246 40.7402C86.0137 41.0684 85.8613 41.4346 85.7676 41.8389C85.6797 42.2432 85.6357 42.6504 85.6357 43.0605V43.4297C85.6357 43.8457 85.6797 44.2588 85.7676 44.6689C85.8613 45.0732 86.0137 45.4365 86.2246 45.7588C86.4297 46.0869 86.7021 46.3535 87.042 46.5586C87.3877 46.7578 87.8154 46.8574 88.3252 46.8574ZM95.3389 38.4902H100.199V46.5938H103.302V48H95.3389V46.5938H98.5732V39.9053H95.3389V38.4902ZM98.3623 35.9941C98.3623 35.8535 98.3828 35.7217 98.4238 35.5986C98.4707 35.4756 98.541 35.3701 98.6348 35.2822C98.7109 35.2061 98.8076 35.1475 98.9248 35.1064C99.0479 35.0596 99.1855 35.0361 99.3379 35.0361C99.4902 35.0361 99.625 35.0596 99.7422 35.1064C99.8594 35.1475 99.9561 35.2061 100.032 35.2822C100.126 35.3643 100.196 35.4668 100.243 35.5898C100.29 35.7129 100.313 35.8477 100.313 35.9941C100.313 36.2578 100.231 36.4775 100.067 36.6533C99.9033 36.8291 99.6602 36.917 99.3379 36.917C99.0098 36.917 98.7637 36.8291 98.5996 36.6533C98.4414 36.4775 98.3623 36.2578 98.3623 35.9941ZM109.744 36.1875V38.4902H113.365V39.7471H109.744V44.915C109.744 45.2842 109.791 45.5889 109.885 45.8291C109.979 46.0693 110.107 46.2598 110.271 46.4004C110.436 46.5469 110.623 46.6494 110.834 46.708C111.051 46.7666 111.279 46.7959 111.52 46.7959C111.695 46.7959 111.877 46.7871 112.064 46.7695C112.252 46.7461 112.437 46.7197 112.618 46.6904C112.794 46.6611 112.958 46.6318 113.11 46.6025C113.269 46.5674 113.397 46.5381 113.497 46.5146L113.726 47.666C113.591 47.748 113.427 47.8213 113.233 47.8857C113.04 47.9443 112.829 47.9941 112.601 48.0352C112.372 48.082 112.129 48.1172 111.871 48.1406C111.619 48.1641 111.367 48.1758 111.115 48.1758C110.693 48.1758 110.298 48.1172 109.929 48C109.565 47.877 109.249 47.6836 108.979 47.4199C108.71 47.1621 108.496 46.8281 108.338 46.418C108.186 46.002 108.109 45.501 108.109 44.915V39.7471H105.613V38.4902H108.109V36.1875H109.744ZM117.47 51.8408C117.317 51.8408 117.139 51.8232 116.934 51.7881C116.729 51.7529 116.573 51.7236 116.468 51.7002L116.731 50.373C116.878 50.3848 117.021 50.3936 117.162 50.3994C117.309 50.4111 117.423 50.417 117.505 50.417C117.728 50.417 117.93 50.3555 118.111 50.2324C118.299 50.1094 118.466 49.9629 118.612 49.793C118.753 49.623 118.873 49.4473 118.973 49.2656C119.078 49.084 119.16 48.9346 119.219 48.8174L119.869 47.5518L115.773 38.4902H117.593L120.203 44.625L120.625 45.7764L121.073 44.6602L123.525 38.4902H125.345L120.52 49.4678C120.408 49.7139 120.265 49.9746 120.089 50.25C119.919 50.5254 119.711 50.7803 119.465 51.0146C119.219 51.249 118.932 51.4453 118.604 51.6035C118.275 51.7617 117.897 51.8408 117.47 51.8408ZM138.326 48V38.4902H139.785L139.899 39.8965C140.04 39.6973 140.192 39.5156 140.356 39.3516C140.526 39.1816 140.705 39.0352 140.893 38.9121C141.174 38.7246 141.479 38.5811 141.807 38.4814C142.141 38.376 142.492 38.3203 142.861 38.3145C143.359 38.3145 143.811 38.3848 144.215 38.5254C144.625 38.666 144.974 38.8857 145.261 39.1846C145.548 39.4834 145.768 39.8643 145.92 40.3271C146.078 40.7842 146.157 41.3291 146.157 41.9619V48H144.531V41.9971C144.531 41.5752 144.484 41.2178 144.391 40.9248C144.297 40.6318 144.159 40.3945 143.978 40.2129C143.79 40.0312 143.562 39.8994 143.292 39.8174C143.028 39.7354 142.724 39.6943 142.378 39.6943C142.079 39.6943 141.801 39.7383 141.543 39.8262C141.285 39.9082 141.048 40.0225 140.831 40.1689C140.655 40.2979 140.491 40.4473 140.339 40.6172C140.192 40.7871 140.063 40.9746 139.952 41.1797V48H138.326ZM155.386 48C155.321 47.877 155.269 47.7246 155.228 47.543C155.192 47.3555 155.166 47.1621 155.148 46.9629C154.984 47.127 154.8 47.2822 154.595 47.4287C154.396 47.5752 154.176 47.7041 153.936 47.8154C153.689 47.9268 153.429 48.0146 153.153 48.0791C152.878 48.1436 152.585 48.1758 152.274 48.1758C151.771 48.1758 151.313 48.1025 150.903 47.9561C150.499 47.8096 150.156 47.6104 149.875 47.3584C149.588 47.1123 149.365 46.8193 149.207 46.4795C149.055 46.1338 148.979 45.7617 148.979 45.3633C148.979 44.8418 149.081 44.3848 149.286 43.9922C149.497 43.5996 149.793 43.2715 150.174 43.0078C150.555 42.75 151.012 42.5566 151.545 42.4277C152.084 42.2988 152.685 42.2344 153.347 42.2344H155.122V41.4873C155.122 41.2002 155.069 40.9424 154.964 40.7139C154.858 40.4854 154.709 40.2891 154.516 40.125C154.322 39.9668 154.085 39.8438 153.804 39.7559C153.528 39.668 153.218 39.624 152.872 39.624C152.55 39.624 152.26 39.665 152.002 39.7471C151.75 39.8291 151.536 39.9375 151.36 40.0723C151.185 40.207 151.047 40.3682 150.947 40.5557C150.854 40.7373 150.807 40.9277 150.807 41.127H149.172C149.178 40.7812 149.266 40.4414 149.436 40.1074C149.611 39.7734 149.863 39.4717 150.191 39.2021C150.514 38.9385 150.906 38.7246 151.369 38.5605C151.838 38.3965 152.368 38.3145 152.96 38.3145C153.499 38.3145 154 38.3818 154.463 38.5166C154.926 38.6455 155.327 38.8418 155.667 39.1055C156.001 39.375 156.265 39.709 156.458 40.1074C156.651 40.5059 156.748 40.9717 156.748 41.5049V45.9258C156.748 46.2422 156.777 46.5791 156.836 46.9365C156.895 47.2881 156.977 47.5957 157.082 47.8594V48H155.386ZM152.512 46.7607C152.828 46.7607 153.124 46.7197 153.399 46.6377C153.675 46.5557 153.927 46.4473 154.155 46.3125C154.378 46.1777 154.571 46.0254 154.735 45.8555C154.899 45.6797 155.028 45.498 155.122 45.3105V43.3857H153.61C153.048 43.3857 152.556 43.4355 152.134 43.5352C151.718 43.6289 151.387 43.7754 151.141 43.9746C150.965 44.1152 150.83 44.2822 150.736 44.4756C150.648 44.6689 150.604 44.8887 150.604 45.1348C150.604 45.3691 150.643 45.5859 150.719 45.7852C150.801 45.9844 150.921 46.1543 151.079 46.2949C151.237 46.4414 151.437 46.5557 151.677 46.6377C151.917 46.7197 152.195 46.7607 152.512 46.7607ZM160.694 38.4902L160.738 39.3867C160.932 39.0527 161.184 38.792 161.494 38.6045C161.811 38.417 162.191 38.3203 162.637 38.3145C162.889 38.3145 163.114 38.3438 163.313 38.4023C163.519 38.4551 163.697 38.5342 163.85 38.6396C163.961 38.7217 164.061 38.8213 164.148 38.9385C164.242 39.0557 164.321 39.1875 164.386 39.334C164.468 39.1992 164.564 39.0732 164.676 38.9561C164.787 38.8389 164.907 38.7363 165.036 38.6484C165.2 38.5488 165.382 38.4697 165.581 38.4111C165.786 38.3525 166.009 38.3203 166.249 38.3145C166.577 38.3145 166.873 38.3643 167.137 38.4639C167.4 38.5576 167.623 38.6982 167.805 38.8857C168.004 39.0967 168.156 39.3721 168.262 39.7119C168.367 40.0459 168.42 40.4414 168.42 40.8984V48H166.873V40.8809C166.873 40.6816 166.85 40.5059 166.803 40.3535C166.756 40.2012 166.688 40.0752 166.601 39.9756C166.507 39.8818 166.39 39.8115 166.249 39.7646C166.114 39.7178 165.956 39.6943 165.774 39.6943C165.581 39.6943 165.414 39.7207 165.273 39.7734C165.133 39.8262 165.016 39.8965 164.922 39.9844C164.828 40.0781 164.755 40.1865 164.702 40.3096C164.649 40.4268 164.614 40.5586 164.597 40.7051C164.597 40.7344 164.597 40.7637 164.597 40.793C164.597 40.8164 164.597 40.8457 164.597 40.8809V48H163.05V40.8721C163.05 40.6729 163.026 40.4971 162.979 40.3447C162.938 40.1924 162.871 40.0664 162.777 39.9668C162.689 39.873 162.578 39.8057 162.443 39.7646C162.314 39.7178 162.162 39.6943 161.986 39.6943C161.793 39.6943 161.623 39.7178 161.477 39.7646C161.336 39.8057 161.216 39.8672 161.116 39.9492C161.04 40.0137 160.973 40.0869 160.914 40.1689C160.861 40.251 160.817 40.3389 160.782 40.4326V48H159.235V38.4902H160.694ZM174.959 48.1758C174.291 48.1758 173.676 48.0615 173.113 47.833C172.557 47.6045 172.079 47.2852 171.681 46.875C171.282 46.4648 170.972 45.9785 170.749 45.416C170.526 44.8535 170.415 44.2412 170.415 43.5791V43.21C170.415 42.4424 170.538 41.7568 170.784 41.1533C171.03 40.5439 171.358 40.0283 171.769 39.6064C172.173 39.1904 172.633 38.8711 173.148 38.6484C173.67 38.4258 174.203 38.3145 174.748 38.3145C175.434 38.3145 176.031 38.4346 176.541 38.6748C177.057 38.9092 177.484 39.2344 177.824 39.6504C178.164 40.0723 178.416 40.5674 178.58 41.1357C178.75 41.7041 178.835 42.3193 178.835 42.9814V43.7109H172.041V43.7725C172.082 44.2354 172.173 44.6426 172.313 44.9941C172.46 45.3457 172.659 45.6562 172.911 45.9258C173.169 46.2129 173.479 46.4385 173.843 46.6025C174.206 46.7666 174.607 46.8486 175.047 46.8486C175.627 46.8486 176.143 46.7314 176.594 46.4971C177.045 46.2627 177.42 45.9521 177.719 45.5654L178.712 46.3389C178.396 46.8193 177.921 47.2471 177.288 47.6221C176.661 47.9912 175.885 48.1758 174.959 48.1758ZM174.748 39.6504C174.42 39.6504 174.109 39.7119 173.816 39.835C173.523 39.9521 173.26 40.125 173.025 40.3535C172.791 40.5879 172.592 40.875 172.428 41.2148C172.27 41.5488 172.158 41.9355 172.094 42.375H177.209V42.2959C177.209 42.0029 177.153 41.6895 177.042 41.3555C176.931 41.0156 176.775 40.7227 176.576 40.4766C176.377 40.2305 176.125 40.0312 175.82 39.8789C175.521 39.7266 175.164 39.6504 174.748 39.6504Z" fill="#02F4BF"/>
</svg>
