<svg width="48" height="45" viewBox="0 0 48 45" fill="none" xmlns="http://www.w3.org/2000/svg">
<g clip-path="url(#clip0_3021_1844)">
<path d="M7.55862 7.3501V37.7251C3.80195 33.6751 1.50195 28.3501 1.50195 22.5001C1.50195 16.6501 3.80195 11.3251 7.55862 7.3501Z" fill="white"/>
<path d="M10.0117 10.6499L23.2751 36.6749H10.0117V10.6499Z" fill="white"/>
<path d="M24.5021 33.75L11.4688 8.32495H37.5354L24.5021 33.75Z" fill="white"/>
<path d="M24.5023 0C30.4823 0 35.9256 2.25 39.989 5.925H9.01562C13.079 2.25 18.5223 0 24.5023 0Z" fill="white"/>
<path d="M38.9918 36.6749H25.7285L38.9918 10.6499V36.6749Z" fill="white"/>
<path d="M39.989 39.075C35.9256 42.75 30.4823 45 24.5023 45C18.5223 45 13.079 42.75 9.01562 39.075H39.989Z" fill="white"/>
<path d="M41.4453 37.6501V7.3501C45.202 11.3251 47.502 16.6501 47.502 22.5001C47.502 28.3501 45.202 33.6751 41.4453 37.6501Z" fill="white"/>
<path d="M10.0117 10.6499L23.2751 36.6749H10.0117V10.6499Z" fill="white"/>
<path d="M24.5021 33.75L11.4688 8.32495H37.5354L24.5021 33.75Z" fill="white"/>
<path d="M25.7285 36.6749L38.9918 10.6499V36.6749H25.7285Z" fill="white"/>
<path d="M11.4688 8.32495H37.5354L24.5021 33.75L11.4688 8.32495Z" fill="white"/>
<g clip-path="url(#clip1_3021_1844)">
<path d="M8.02852 7.3501V37.7251C4.35352 33.6751 2.10352 28.3501 2.10352 22.5001C2.10352 16.6501 4.35352 11.3251 8.02852 7.3501Z" fill="white"/>
<path d="M10.4287 10.6499L23.4037 36.6749H10.4287V10.6499Z" fill="white"/>
<path d="M24.6035 33.75L11.8535 8.32495H37.3535L24.6035 33.75Z" fill="white"/>
<path d="M24.6031 0C30.4531 0 35.7781 2.25 39.7531 5.925H9.45312C13.4281 2.25 18.7531 0 24.6031 0Z" fill="white"/>
<path d="M38.7787 36.6749H25.8037L38.7787 10.6499V36.6749Z" fill="white"/>
<path d="M39.7531 39.075C35.7781 42.75 30.4531 45 24.6031 45C18.7531 45 13.4281 42.75 9.45312 39.075H39.7531Z" fill="white"/>
<path d="M41.1787 37.6501V7.3501C44.8537 11.3251 47.1037 16.6501 47.1037 22.5001C47.1037 28.3501 44.8537 33.6751 41.1787 37.6501Z" fill="white"/>
<path d="M10.4287 10.6499L23.4037 36.6749H10.4287V10.6499Z" fill="white"/>
<path d="M24.6035 33.75L11.8535 8.32495H37.3535L24.6035 33.75Z" fill="white"/>
<path d="M25.8037 36.6749L38.7787 10.6499V36.6749H25.8037Z" fill="white"/>
<path d="M11.8535 8.32495H37.3535L24.6035 33.75L11.8535 8.32495Z" fill="white"/>
</g>
<path d="M7.18264 7.3501V37.7251C3.42598 33.6751 1.12598 28.3501 1.12598 22.5001C1.12598 16.6501 3.42598 11.3251 7.18264 7.3501Z" fill="#02F4BF"/>
<path d="M9.63574 10.6499L22.8991 36.6749H9.63574V10.6499Z" fill="#02F4BF"/>
<path d="M24.1261 33.75L11.0928 8.32495H37.1594L24.1261 33.75Z" fill="#02F4BF"/>
<path d="M24.1263 0C30.1063 0 35.5497 2.25 39.613 5.925H8.63965C12.703 2.25 18.1463 0 24.1263 0Z" fill="#02F4BF"/>
<path d="M38.6159 36.6749H25.3525L38.6159 10.6499V36.6749Z" fill="#02F4BF"/>
<path d="M39.613 39.075C35.5497 42.75 30.1063 45 24.1263 45C18.1463 45 12.703 42.75 8.63965 39.075H39.613Z" fill="#02F4BF"/>
<path d="M41.0693 37.6501V7.3501C44.826 11.3251 47.126 16.6501 47.126 22.5001C47.126 28.3501 44.826 33.6751 41.0693 37.6501Z" fill="#02F4BF"/>
<path d="M9.63574 10.6499L22.8991 36.6749H9.63574V10.6499Z" fill="#02F4BF"/>
<path d="M24.1261 33.75L11.0928 8.32495H37.1594L24.1261 33.75Z" fill="#02F4BF"/>
<path d="M25.3525 36.6749L38.6159 10.6499V36.6749H25.3525Z" fill="#02F4BF"/>
<path d="M11.0928 8.32495H37.1594L24.1261 33.75L11.0928 8.32495Z" fill="#02F4BF"/>
</g>
<defs>
<clipPath id="clip0_3021_1844">
<rect width="47" height="45" fill="white" transform="translate(0.368164)"/>
</clipPath>
<clipPath id="clip1_3021_1844">
<rect width="45" height="45" fill="white" transform="translate(2.10352)"/>
</clipPath>
</defs>
</svg>
