<svg width="46" height="45" viewBox="0 0 46 45" fill="none" xmlns="http://www.w3.org/2000/svg">
<path d="M1.86626 4.00506C1.86626 2.6226 2.98413 1.5019 4.36309 1.5019L41.9614 1.5019C43.3403 1.5019 44.4582 2.62261 44.4582 4.00507L44.4582 40.9949C44.4582 42.3774 43.3403 43.4981 41.9614 43.4981L4.36309 43.4981C2.98413 43.4981 1.86626 42.3774 1.86626 40.9949L1.86626 4.00506Z" fill="#E15544" stroke="#E15544" stroke-width="3"/>
<path d="M21.6685 27.5552C21.6685 26.8805 21.6831 26.3085 21.7123 25.8392C21.7514 25.3698 21.8343 24.9445 21.9611 24.5631C22.0878 24.1916 22.278 23.8493 22.5316 23.5364C22.7852 23.2138 23.1412 22.8715 23.5996 22.5097C23.9312 22.2066 24.2628 21.8888 24.5944 21.5564C24.926 21.2142 25.2284 20.8622 25.5015 20.5004C25.7648 20.1484 25.9794 19.7866 26.1452 19.415C26.311 19.0434 26.3939 18.6719 26.3939 18.3003C26.3939 17.8505 26.3305 17.4643 26.2037 17.1416C26.0769 16.8092 25.8965 16.5354 25.6624 16.3203C25.4186 16.1247 25.1211 15.978 24.77 15.8803C24.4286 15.7825 24.0336 15.7336 23.585 15.7336C23.2339 15.7336 22.8925 15.7825 22.5609 15.8803C22.2293 15.9683 21.9367 16.1149 21.6831 16.3203C21.4198 16.5256 21.2052 16.7896 21.0394 17.1123C20.8833 17.435 20.8004 17.8212 20.7907 18.271L16.7089 18.271C16.7187 17.2736 16.904 16.4083 17.2649 15.6749C17.6257 14.9318 18.1134 14.3158 18.7279 13.8269C19.3423 13.338 20.0641 12.9762 20.8931 12.7415C21.7221 12.4971 22.6194 12.3749 23.585 12.3749C24.6676 12.3749 25.638 12.4971 26.4963 12.7415C27.3546 12.986 28.0812 13.3478 28.6762 13.8269C29.2613 14.3158 29.71 14.9171 30.0221 15.6309C30.3342 16.3447 30.4903 17.171 30.4903 18.1096C30.4903 18.8039 30.3732 19.4395 30.1391 20.0164C29.9051 20.5835 29.6027 21.1115 29.2321 21.6004C28.8615 22.0991 28.4372 22.5733 27.9593 23.0231C27.4911 23.4631 27.0181 23.8933 26.5402 24.3138C26.2476 24.6071 26.0184 24.8662 25.8526 25.0911C25.6868 25.316 25.5698 25.5458 25.5015 25.7805C25.4235 26.0152 25.3747 26.2743 25.3552 26.5578C25.3357 26.8316 25.3259 27.1641 25.3259 27.5552L21.6685 27.5552ZM21.0686 31.9993C21.0686 31.3539 21.2783 30.8162 21.6977 30.3859C22.1171 29.9459 22.6974 29.7259 23.4387 29.7259C24.1604 29.7259 24.7358 29.9459 25.165 30.3859C25.6039 30.8162 25.8233 31.3539 25.8233 31.9993C25.8233 32.6251 25.6039 33.1531 25.165 33.5833C24.7358 34.0038 24.1604 34.214 23.4387 34.214C22.6974 34.214 22.1171 34.0038 21.6977 33.5833C21.2783 33.1531 21.0686 32.6251 21.0686 31.9993Z" fill="#02F4BF"/>
</svg>
