<svg width="49" height="45" viewBox="0 0 49 45" fill="none" xmlns="http://www.w3.org/2000/svg">
<g clip-path="url(#clip0_3021_1828)">
<path fill-rule="evenodd" clip-rule="evenodd" d="M47.803 11.8229L43.5426 17.7812L39.2822 11.8229H41.6051C41.4281 7.39583 37.7718 3.85417 33.3031 3.85417C29.5322 3.85417 26.3343 6.38541 25.3239 9.83333C24.0947 9.4375 22.8239 9.1875 21.5322 9.07291C21.6781 8.52083 21.8656 7.96875 22.0947 7.4375C22.7093 5.98958 23.5843 4.6875 24.6989 3.57292C25.8135 2.45833 27.1156 1.57292 28.5635 0.96875C30.0635 0.322917 31.6572 0 33.3031 0C34.9489 0 36.5426 0.322917 38.0426 0.958333C39.4906 1.57292 40.7926 2.44792 41.9072 3.5625C43.0218 4.67708 43.8968 5.97916 44.5114 7.42708C45.1051 8.82291 45.4281 10.3021 45.4593 11.8229H47.803Z" fill="#02F4BF"/>
<path fill-rule="evenodd" clip-rule="evenodd" d="M41.8447 44.9999V42.4374H27.1572C27.2614 42.3853 27.3656 42.3437 27.4697 42.2916C29.0635 41.5312 30.5322 40.5416 31.8447 39.3333C32.0218 39.1666 32.1885 39.0103 32.3447 38.8541C32.5218 38.677 32.7093 38.4895 32.8864 38.2916C33.0947 38.0624 33.3031 37.8228 33.4906 37.5833H41.8447V35.0208L48.8239 40.0103L41.8447 44.9999Z" fill="#02F4BF"/>
<path fill-rule="evenodd" clip-rule="evenodd" d="M36.4281 26.4897C36.4281 28.7084 35.9906 30.8647 35.1364 32.8959C34.4072 34.6251 33.3864 36.2084 32.1156 37.5938C31.9489 37.7709 31.7822 37.948 31.6156 38.1251C31.4593 38.2813 31.3031 38.4272 31.1468 38.5834C29.9177 39.7188 28.5427 40.6459 27.0427 41.3647C26.8343 41.4688 26.6156 41.5626 26.3968 41.6563C26.3864 41.6563 26.3864 41.6667 26.376 41.6667C25.126 42.198 23.7822 42.4584 22.4176 42.4584H0.750977V37.6147H20.8656C26.9489 37.6147 31.9385 32.7501 32.0218 26.6667C32.0218 26.6147 32.0218 26.5626 32.0218 26.5105C32.0218 19.8647 26.626 14.4688 19.9801 14.4688C13.3343 14.448 7.93848 19.8334 7.93848 26.4897H10.7301L5.74056 33.4688L0.750977 26.4897H3.54264C3.54264 24.2709 3.98014 22.1147 4.83431 20.0834C5.66764 18.1251 6.84473 16.3647 8.35515 14.8542C9.86556 13.3438 11.626 12.1563 13.5843 11.3334C15.6156 10.4792 17.7718 10.0417 19.9906 10.0417C20.4385 10.0417 20.876 10.0626 21.3135 10.0938C22.6051 10.198 23.8656 10.448 25.0947 10.8542C25.5322 11.0001 25.9593 11.1563 26.3864 11.3438C28.3447 12.1772 30.1052 13.3542 31.6156 14.8647C33.126 16.3751 34.3135 18.1355 35.1364 20.0938C35.9906 22.1147 36.4281 24.2709 36.4281 26.4897Z" fill="#02F4BF"/>
</g>
<defs>
<clipPath id="clip0_3021_1828">
<rect width="48.0833" height="45" fill="white" transform="translate(0.750977)"/>
</clipPath>
</defs>
</svg>
