<svg width="46" height="45" viewBox="0 0 46 45" fill="none" xmlns="http://www.w3.org/2000/svg">
<path d="M23.251 1.35014C26.1065 1.35014 28.8743 1.91044 31.4868 3.0108C32.7424 3.5441 33.9508 4.19892 35.0782 4.96175C36.1988 5.71782 37.2519 6.58866 38.2105 7.54726C39.1691 8.50585 40.0399 9.55896 40.796 10.6796C41.5588 11.8069 42.2136 13.0221 42.7469 14.2709C43.8473 16.8767 44.4076 19.6445 44.4076 22.5068C44.4076 25.369 43.8473 28.1301 42.7469 30.7426C42.2136 31.9982 41.5588 33.2066 40.796 34.3339C40.0399 35.4545 39.1691 36.5077 38.2105 37.4662C37.2519 38.4248 36.1988 39.2957 35.0782 40.0518C33.9508 40.8146 32.7357 41.4694 31.4868 42.0027C28.881 43.1031 26.1133 43.6634 23.251 43.6634C20.3954 43.6634 17.6277 43.1031 15.0152 42.0027C13.7595 41.4694 12.5512 40.8146 11.4238 40.0518C10.3032 39.2957 9.25008 38.4248 8.29148 37.4662C7.33289 36.5077 6.46205 35.4545 5.70597 34.3339C4.94315 33.2066 4.28833 31.9914 3.75503 30.7426C2.66142 28.1301 2.10111 25.3555 2.10111 22.5C2.10111 19.6445 2.66142 16.8767 3.76178 14.2642C4.29508 13.0086 4.9499 11.8002 5.71272 10.6728C6.4688 9.55221 7.33964 8.4991 8.29823 7.5405C9.25683 6.58191 10.3099 5.71107 11.4305 4.955C12.5579 4.19217 13.773 3.53735 15.0219 3.00405C17.6277 1.91044 20.3954 1.35014 23.251 1.35014ZM23.251 0C10.823 0 0.750977 10.072 0.750977 22.5C0.750977 34.928 10.823 45 23.251 45C35.679 45 45.751 34.928 45.751 22.5C45.7577 10.072 35.679 0 23.251 0Z" fill="#02F4BF"/>
<path d="M4.50391 22.4988C4.50391 29.9178 8.81759 36.3377 15.0755 39.3755L6.13082 14.8706C5.08446 17.1996 4.50391 19.7851 4.50391 22.4988ZM35.9148 21.5537C35.9148 19.2383 35.0845 17.6316 34.3689 16.3827C33.4171 14.8368 32.526 13.5272 32.526 11.988C32.526 10.2666 33.8356 8.65994 35.6718 8.65994C35.7528 8.65994 35.8338 8.66669 35.9148 8.67344C32.58 5.61538 28.1313 3.7522 23.2505 3.7522C16.7024 3.7522 10.9373 7.11404 7.58222 12.204C8.02101 12.2175 8.43955 12.2243 8.79059 12.2243C10.7483 12.2243 13.7861 11.988 13.7861 11.988C14.7987 11.9273 14.9135 13.4124 13.9076 13.5339C13.9076 13.5339 12.8883 13.6554 11.7609 13.7094L18.5926 34.0222L22.697 21.7158L19.7739 13.7094C18.7613 13.6487 17.8095 13.5339 17.8095 13.5339C16.7969 13.4732 16.9184 11.9273 17.931 11.988C17.931 11.988 21.0296 12.2243 22.8725 12.2243C24.8302 12.2243 27.868 11.988 27.868 11.988C28.8806 11.9273 28.9954 13.4124 27.9895 13.5339C27.9895 13.5339 26.9702 13.6554 25.8428 13.7094L32.6137 33.867L34.5512 27.7374C35.4085 25.0573 35.9148 23.1604 35.9148 21.5537ZM23.5813 24.1392L17.9513 40.4894C19.6322 40.9822 21.4076 41.2522 23.2505 41.2522C25.431 41.2522 27.5305 40.8742 29.4747 40.1924C29.4274 40.1114 29.3802 40.0236 29.3397 39.9358L23.5813 24.1392ZM39.7087 13.5069C39.7897 14.101 39.837 14.7423 39.837 15.4376C39.837 17.3413 39.4792 19.4813 38.4126 22.1545L32.6812 38.7072C38.2573 35.4601 42.0039 29.4183 42.0039 22.4988C42.0039 19.2383 41.1736 16.1734 39.7087 13.5069Z" fill="#02F4BF"/>
</svg>
